<svg width="960" height="640" viewBox="0 0 960 640" fill="none" xmlns="http://www.w3.org/2000/svg">
  <defs>
    <linearGradient id="nvFrame" x1="126" y1="64" x2="830" y2="560" gradientUnits="userSpaceOnUse">
      <stop stop-color="#5F68F6"/>
      <stop offset="0.52" stop-color="#2557F4"/>
      <stop offset="1" stop-color="#00A595"/>
    </linearGradient>
    <linearGradient id="nvGlass" x1="171" y1="112" x2="790" y2="520" gradientUnits="userSpaceOnUse">
      <stop stop-color="#F9FBFF" stop-opacity="0.98"/>
      <stop offset="1" stop-color="#DDE8FF" stop-opacity="0.88"/>
    </linearGradient>
    <linearGradient id="nvScreen" x1="0" y1="0" x2="1" y2="1">
      <stop stop-color="#EEF3FF"/>
      <stop offset="1" stop-color="#D7E5FF"/>
    </linearGradient>
    <linearGradient id="nvAccent" x1="0" y1="0" x2="1" y2="1">
      <stop stop-color="#2557F4"/>
      <stop offset="1" stop-color="#00A595"/>
    </linearGradient>
  </defs>

  <rect x="222" y="34" width="516" height="328" rx="32" fill="#101C32"/>
  <rect x="238" y="50" width="484" height="296" rx="22" fill="url(#nvScreen)"/>
  <rect x="298" y="94" width="166" height="166" rx="28" fill="url(#nvAccent)" fill-opacity="0.14"/>
  <rect x="496" y="94" width="176" height="22" rx="11" fill="#B1C4F7"/>
  <rect x="496" y="132" width="148" height="18" rx="9" fill="#C7D5FA"/>
  <rect x="496" y="168" width="132" height="18" rx="9" fill="#D6E0FB"/>
  <rect x="496" y="212" width="176" height="80" rx="24" fill="#FFFFFF" fill-opacity="0.72"/>
  <path d="M381 112L420 126V170C420 199.5 403 223.4 381 233C359 223.4 342 199.5 342 170V126L381 112Z" fill="#FFFFFF"/>
  <rect x="434" y="362" width="92" height="16" rx="8" fill="#34425F"/>
  <path d="M286 390H674L710 546H250L286 390Z" fill="#CFDBF8"/>
  <path d="M312 412H648L672 520H288L312 412Z" fill="#F6F9FF"/>

  <rect x="84" y="178" width="152" height="308" rx="30" fill="url(#nvFrame)"/>
  <rect x="96" y="190" width="128" height="284" rx="22" fill="#0E1830"/>
  <rect x="106" y="204" width="108" height="252" rx="18" fill="url(#nvGlass)"/>
  <path d="M160 238L188 248V282C188 303.4 175.6 320.7 160 327C144.4 320.7 132 303.4 132 282V248L160 238Z" fill="#2557F4"/>
  <rect x="128" y="348" width="64" height="12" rx="6" fill="#B7C8F8"/>
  <rect x="128" y="372" width="84" height="10" rx="5" fill="#D0DCF9"/>
  <rect x="128" y="396" width="74" height="10" rx="5" fill="#DDE6FB"/>

  <rect x="708" y="236" width="176" height="228" rx="34" fill="#13213A"/>
  <rect x="724" y="252" width="144" height="196" rx="24" fill="url(#nvGlass)"/>
  <path d="M796 286L830 300V338C830 364.8 814.5 386.7 796 394C777.5 386.7 762 364.8 762 338V300L796 286Z" fill="#00A595"/>
  <rect x="754" y="412" width="84" height="12" rx="6" fill="#BCD9F6"/>

  <circle cx="178" cy="112" r="18" fill="#00A595" fill-opacity="0.18"/>
  <circle cx="746" cy="134" r="14" fill="#2557F4" fill-opacity="0.18"/>
  <circle cx="812" cy="520" r="22" fill="#5F68F6" fill-opacity="0.18"/>
</svg>
